<svg width="304" height="233" viewBox="0 0 304 233" fill="none" xmlns="http://www.w3.org/2000/svg">
<path d="M230.275 31.0964C230.275 31.0964 200.519 -1.50528 153.409 0.0542165C106.298 1.61371 66.1137 33.2028 32.8912 57.9183C-0.331275 82.6337 -9.23742 121.022 10.0752 150.993C29.3879 180.963 60.164 168.347 99.3436 187.8C138.523 207.253 145.966 218.303 189.61 213.572C233.253 208.842 266.476 160.461 261.524 108.923C256.572 57.3861 230.275 31.0964 230.275 31.0964Z" fill="#F58A43"/>
<path opacity="0.7" d="M230.275 31.0964C230.275 31.0964 200.519 -1.50528 153.409 0.0542165C106.298 1.61371 66.1137 33.2028 32.8912 57.9183C-0.331275 82.6337 -9.23742 121.022 10.0752 150.993C29.3879 180.963 60.164 168.347 99.3436 187.8C138.523 207.253 145.966 218.303 189.61 213.572C233.253 208.842 266.476 160.461 261.524 108.923C256.572 57.3861 230.275 31.0964 230.275 31.0964Z" fill="white"/>
<path d="M157.274 232.434C238.309 232.434 304 228.851 304 224.43C304 220.009 238.309 216.425 157.274 216.425C76.2397 216.425 10.5483 220.009 10.5483 224.43C10.5483 228.851 76.2397 232.434 157.274 232.434Z" fill="#F58A43"/>
<path opacity="0.3" d="M157.274 232.434C238.309 232.434 304 228.851 304 224.43C304 220.009 238.309 216.425 157.274 216.425C76.2397 216.425 10.5483 220.009 10.5483 224.43C10.5483 228.851 76.2397 232.434 157.274 232.434Z" fill="white"/>
<path d="M243.985 103.779C243.941 103.779 244.495 101.023 244.554 100.823C245.19 98.857 247.585 95.4276 249.898 95.4349C250.283 95.4459 250.661 95.5378 251.008 95.7045C251.354 95.8711 251.662 96.109 251.911 96.4024C252.16 96.6959 252.344 97.0385 252.452 97.4079C252.56 97.7773 252.589 98.1653 252.537 98.5465C252.367 100.18 250.903 101.562 249.58 102.368C248.028 103.336 243.985 103.779 243.985 103.779Z" fill="#F58A43"/>
<path d="M239.499 85.2205C241.679 86.0039 242.766 90.0394 242.692 92.1089C242.692 92.2863 242.278 95.0653 242.241 95.0653H242.197C242.367 95.7009 242.551 96.3883 242.736 97.1348C243.061 98.5243 243.416 100.091 243.69 101.835C244.007 103.706 244.214 105.594 244.31 107.49C244.428 109.61 244.356 111.738 244.096 113.846C244.092 113.87 244.092 113.895 244.096 113.92C244.384 113.306 245.234 111.606 245.316 111.481C246.454 109.751 249.661 107.046 251.901 107.696C252.268 107.81 252.607 107.999 252.896 108.251C253.186 108.504 253.419 108.814 253.581 109.163C253.742 109.511 253.829 109.89 253.835 110.274C253.841 110.658 253.766 111.039 253.616 111.392C253.024 112.915 251.251 113.868 249.765 114.289C248.087 114.77 244.347 114.201 244.052 114.156C243.736 116.294 243.277 118.407 242.677 120.483C242.332 121.695 241.958 122.907 241.554 124.119C241.812 123.595 242.056 123.129 242.093 123.062C243.231 121.333 246.439 118.628 248.678 119.271C249.046 119.383 249.386 119.571 249.676 119.824C249.966 120.076 250.2 120.387 250.361 120.735C250.523 121.084 250.61 121.463 250.615 121.847C250.621 122.232 250.545 122.613 250.393 122.966C249.802 124.496 248.028 125.442 246.542 125.871C245.057 126.3 241.834 125.871 240.992 125.76C240.837 126.218 240.681 126.684 240.519 127.142C239.78 129.359 238.982 131.577 238.302 133.75C238.058 134.489 237.843 135.287 237.629 136.056C237.865 135.59 238.065 135.198 238.102 135.147C239.233 133.417 242.448 130.712 244.68 131.355C245.047 131.468 245.386 131.657 245.676 131.91C245.965 132.162 246.199 132.473 246.361 132.821C246.523 133.169 246.611 133.547 246.618 133.931C246.625 134.315 246.551 134.697 246.402 135.051C245.811 136.573 244.03 137.527 242.544 137.948C241.058 138.369 238.154 138 237.149 137.859C236.949 138.657 236.757 139.448 236.602 140.224C236.506 140.756 236.38 141.266 236.313 141.806C236.247 142.345 236.166 142.87 236.092 143.388C235.988 144.4 235.87 145.45 235.796 146.44C235.737 147.127 235.693 147.785 235.648 148.443C235.877 147.704 236.387 146.181 236.424 146.056C237.245 144.431 238.466 143.042 239.972 142.02C240.054 141.835 240.156 141.659 240.275 141.495C240.484 141.173 240.759 140.898 241.082 140.689C241.404 140.479 241.767 140.34 242.147 140.28C242.527 140.22 242.915 140.241 243.287 140.341C243.658 140.441 244.004 140.617 244.303 140.86C246.062 142.338 245.619 146.536 244.813 148.443C244.769 148.554 244.111 149.714 243.69 150.439C244.007 150.054 244.303 149.699 244.636 149.271C245.279 148.487 245.944 147.719 246.653 146.891L247.74 145.716C248.095 145.309 248.523 144.932 248.915 144.541C249.839 143.646 250.822 142.782 251.834 141.932C251.14 141.37 248.723 139.323 248.028 137.933C247.333 136.544 246.838 134.6 247.562 133.136C247.721 132.785 247.952 132.471 248.24 132.214C248.528 131.958 248.867 131.765 249.234 131.649C249.602 131.532 249.99 131.495 250.373 131.538C250.756 131.582 251.126 131.706 251.457 131.902C253.416 133.129 253.616 137.305 253.106 139.293C253.106 139.419 252.544 140.815 252.241 141.577C252.854 141.074 253.46 140.564 254.096 140.099C255.929 138.68 257.829 137.305 259.713 135.923L261.435 134.644C261.191 134.444 258.265 132.079 257.481 130.527C256.794 129.145 256.291 127.194 257.016 125.723C257.175 125.372 257.406 125.059 257.694 124.803C257.982 124.548 258.321 124.355 258.688 124.239C259.056 124.123 259.443 124.085 259.826 124.128C260.209 124.171 260.578 124.294 260.911 124.489C262.869 125.723 263.069 129.899 262.559 131.88C262.522 132.035 261.761 134.045 261.539 134.548C262.803 133.602 264.052 132.656 265.234 131.673C266.853 130.351 268.384 128.923 269.817 127.401C269.706 127.312 266.639 124.858 265.84 123.262C265.146 121.88 264.65 119.929 265.375 118.465C265.532 118.114 265.762 117.8 266.05 117.543C266.337 117.287 266.675 117.094 267.042 116.978C267.409 116.861 267.797 116.824 268.179 116.867C268.562 116.911 268.931 117.035 269.262 117.231C271.228 118.458 271.428 122.634 270.918 124.622C270.881 124.747 270.305 126.285 270.009 127.009L270.127 127.076C271.529 125.506 272.788 123.814 273.889 122.02C274.503 121.045 275.042 120.076 275.545 119.116C274.924 118.716 272.123 116.898 271.243 115.509C270.364 114.119 269.698 112.331 270.253 110.793C270.372 110.432 270.566 110.099 270.821 109.816C271.076 109.533 271.388 109.306 271.735 109.151C272.083 108.995 272.46 108.913 272.841 108.911C273.222 108.909 273.599 108.986 273.948 109.138C276.04 110.143 276.69 114.274 276.402 116.322C276.402 116.433 276.106 117.549 275.892 118.362C276.106 117.926 276.343 117.482 276.543 117.061C277.282 115.479 277.91 113.986 278.427 112.626C278.723 111.887 278.967 111.148 279.166 110.535C278.76 109.796 277.178 106.95 277.023 105.361C276.868 103.772 277.119 101.821 278.324 100.712C278.599 100.442 278.927 100.234 279.288 100.1C279.649 99.9654 280.034 99.9087 280.418 99.9331C280.802 99.9575 281.177 100.062 281.517 100.241C281.858 100.42 282.158 100.669 282.396 100.971C283.786 102.826 282.463 106.787 281.265 108.48C281.162 108.62 279.277 110.697 279.255 110.697V110.653C279.048 111.281 278.826 111.954 278.56 112.678C278.072 114.016 277.496 115.531 276.772 117.113C276 118.846 275.129 120.534 274.163 122.168C273.086 123.999 271.85 125.73 270.467 127.342L270.415 127.401C270.992 127.039 272.633 126.1 272.773 126.041C274.68 125.228 278.834 124.762 280.356 126.514C280.6 126.811 280.779 127.156 280.881 127.527C280.984 127.898 281.007 128.286 280.95 128.666C280.893 129.047 280.756 129.411 280.55 129.735C280.343 130.059 280.071 130.337 279.75 130.549C278.412 131.495 276.402 131.289 274.931 130.838C273.268 130.313 270.497 127.778 270.238 127.578C268.797 129.186 267.249 130.695 265.604 132.094C264.643 132.922 263.66 133.72 262.647 134.504C263.157 134.215 263.616 133.957 263.682 133.927C265.582 133.114 269.735 132.648 271.258 134.4C271.503 134.697 271.683 135.042 271.786 135.413C271.889 135.784 271.912 136.172 271.855 136.553C271.798 136.934 271.661 137.298 271.454 137.622C271.247 137.947 270.973 138.224 270.652 138.436C269.322 139.382 267.311 139.175 265.84 138.724C264.37 138.273 261.908 136.144 261.273 135.575L260.112 136.47C258.25 137.896 256.417 139.308 254.606 140.749C253.978 141.259 253.379 141.784 252.773 142.301C253.231 142.042 253.608 141.828 253.675 141.806C255.574 140.985 259.728 140.527 261.251 142.272C261.497 142.568 261.678 142.913 261.781 143.284C261.885 143.655 261.908 144.044 261.851 144.425C261.794 144.806 261.657 145.171 261.449 145.495C261.241 145.819 260.967 146.096 260.645 146.307C259.307 147.253 257.304 147.046 255.833 146.603C254.362 146.159 252.137 144.223 251.398 143.55C250.8 144.104 250.194 144.651 249.639 145.221C249.262 145.612 248.9 145.96 248.531 146.381C248.161 146.802 247.792 147.179 247.466 147.578C246.823 148.362 246.151 149.175 245.537 149.958C245.109 150.498 244.71 151.022 244.31 151.547C244.924 151.037 246.166 150.069 246.276 149.988C248.028 148.894 252.064 147.807 253.837 149.3C254.124 149.558 254.353 149.873 254.51 150.225C254.666 150.577 254.748 150.959 254.748 151.344C254.748 151.729 254.666 152.11 254.51 152.463C254.353 152.815 254.124 153.13 253.837 153.388C252.662 154.518 250.652 154.644 249.129 154.408C247.444 154.141 244.399 152.19 244.022 151.909C243.357 152.782 242.721 153.639 242.13 154.459C240.083 157.29 238.486 159.722 237.392 161.444L237.282 161.614L235.863 160.926C235.936 160.816 236.01 160.712 236.084 160.594C237.23 158.879 238.9 156.455 241.029 153.639C241.701 152.752 242.433 151.813 243.194 150.852C242.402 149.991 241.662 149.082 240.977 148.133C239.344 148.768 235.951 148.798 235.515 148.798C235.449 149.892 235.389 150.956 235.345 151.961C235.197 155.457 235.212 158.369 235.249 160.402V160.646L233.69 159.906C233.69 157.889 233.771 155.147 233.978 151.917C234.044 150.801 234.14 149.611 234.251 148.399C233.815 148.288 230.29 147.379 228.959 146.314C227.755 145.354 226.483 143.787 226.528 142.153C226.524 141.768 226.601 141.386 226.755 141.033C226.908 140.68 227.135 140.363 227.42 140.103C227.704 139.844 228.041 139.647 228.407 139.527C228.773 139.406 229.16 139.364 229.543 139.404C231.842 139.699 233.763 143.41 234.148 145.442C234.148 145.561 234.266 146.92 234.31 147.733C234.362 147.231 234.399 146.75 234.451 146.255C234.554 145.243 234.687 144.23 234.828 143.144C234.909 142.626 234.998 142.102 235.079 141.569C235.16 141.037 235.301 140.49 235.412 139.943C235.693 138.687 236.033 137.423 236.409 136.159C235.523 136.063 232.381 135.694 231.029 134.925C229.676 134.156 228.198 132.796 227.999 131.178C227.936 130.797 227.954 130.408 228.052 130.035C228.15 129.662 228.326 129.314 228.568 129.014C228.81 128.713 229.113 128.468 229.457 128.293C229.801 128.118 230.178 128.018 230.563 128C232.877 127.94 235.345 131.318 236.025 133.269C236.069 133.395 236.402 134.851 236.565 135.657C236.801 134.917 237.023 134.134 237.304 133.38C238.043 131.163 238.878 128.99 239.691 126.795C239.942 126.122 240.179 125.45 240.43 124.784C240.112 124.784 236.365 124.393 234.857 123.528C233.52 122.789 232.027 121.399 231.82 119.781C231.759 119.401 231.779 119.012 231.878 118.64C231.977 118.268 232.153 117.921 232.395 117.621C232.637 117.322 232.939 117.076 233.282 116.901C233.624 116.725 234 116.624 234.384 116.603C236.705 116.544 239.174 119.921 239.854 121.872C239.905 122.02 240.378 124.09 240.474 124.659C241.007 123.181 241.531 121.702 241.953 120.224C242.578 118.229 243.072 116.194 243.431 114.134C243.283 114.134 239.366 113.764 237.829 112.878C236.483 112.138 234.99 110.749 234.791 109.13C234.73 108.75 234.75 108.362 234.849 107.99C234.948 107.618 235.125 107.27 235.366 106.971C235.608 106.671 235.91 106.426 236.253 106.25C236.595 106.075 236.971 105.973 237.356 105.952C239.669 105.9 242.137 109.271 242.817 111.222C242.862 111.355 243.224 112.951 243.379 113.713H243.512C243.817 111.631 243.936 109.526 243.867 107.423C243.867 106.263 243.756 105.161 243.645 104.082C242.906 104.082 239.551 104.082 238.072 103.447C236.594 102.811 235.02 101.643 234.636 100.054C234.533 99.682 234.51 99.2923 234.569 98.9106C234.627 98.529 234.766 98.164 234.975 97.8396C235.184 97.5151 235.46 97.2386 235.783 97.0279C236.107 96.8173 236.472 96.6774 236.853 96.6174C239.152 96.307 241.975 99.389 242.869 101.259C242.914 101.362 243.298 102.449 243.557 103.24C243.505 102.759 243.453 102.257 243.387 101.798C243.157 100.062 242.832 98.4799 242.537 97.0904C242.359 96.2996 242.189 95.6122 242.019 94.9249C241.28 94.5553 238.383 93.0328 237.385 91.7985C236.387 90.5642 235.515 88.7977 235.907 87.2087C235.991 86.8299 236.155 86.4734 236.388 86.1626C236.62 85.8519 236.916 85.594 237.255 85.4061C237.595 85.2182 237.97 85.1044 238.357 85.0724C238.744 85.0405 239.133 85.0909 239.499 85.2205Z" fill="#F58A43"/>
<path d="M281.391 120.941C279.58 120.867 275.959 119.012 275.959 119.005C275.959 118.997 277.902 116.994 278.043 116.884C279.662 115.59 283.549 114.053 285.478 115.331C285.793 115.554 286.057 115.84 286.254 116.171C286.451 116.502 286.576 116.871 286.622 117.253C286.667 117.636 286.631 118.024 286.517 118.392C286.403 118.76 286.213 119.099 285.959 119.389C284.924 120.631 282.936 121 281.391 120.941Z" fill="#F58A43"/>
<g opacity="0.5">
<path d="M243.985 103.779C243.941 103.779 244.495 101.023 244.554 100.823C245.19 98.857 247.585 95.4276 249.898 95.4349C250.283 95.4459 250.661 95.5378 251.008 95.7045C251.354 95.8711 251.662 96.109 251.911 96.4024C252.16 96.6959 252.344 97.0385 252.452 97.4079C252.56 97.7773 252.589 98.1653 252.537 98.5465C252.367 100.18 250.903 101.562 249.58 102.368C248.028 103.336 243.985 103.779 243.985 103.779Z" fill="white"/>
<path d="M239.499 85.2205C241.679 86.0039 242.766 90.0394 242.692 92.1089C242.692 92.2863 242.278 95.0653 242.241 95.0653H242.197C242.367 95.7009 242.551 96.3883 242.736 97.1348C243.061 98.5243 243.416 100.091 243.69 101.835C244.007 103.706 244.214 105.594 244.31 107.49C244.428 109.61 244.356 111.738 244.096 113.846C244.092 113.87 244.092 113.895 244.096 113.92C244.384 113.306 245.234 111.606 245.316 111.481C246.454 109.751 249.661 107.046 251.901 107.696C252.268 107.81 252.607 107.999 252.896 108.251C253.186 108.504 253.419 108.814 253.581 109.163C253.742 109.511 253.829 109.89 253.835 110.274C253.841 110.658 253.766 111.039 253.616 111.392C253.024 112.915 251.251 113.868 249.765 114.289C248.087 114.77 244.347 114.201 244.052 114.156C243.736 116.294 243.277 118.407 242.677 120.483C242.332 121.695 241.958 122.907 241.554 124.119C241.812 123.595 242.056 123.129 242.093 123.062C243.231 121.333 246.439 118.628 248.678 119.271C249.046 119.383 249.386 119.571 249.676 119.824C249.966 120.076 250.2 120.387 250.361 120.735C250.523 121.084 250.61 121.463 250.615 121.847C250.621 122.232 250.545 122.613 250.393 122.966C249.802 124.496 248.028 125.442 246.542 125.871C245.057 126.3 241.834 125.871 240.992 125.76C240.837 126.218 240.681 126.684 240.519 127.142C239.78 129.359 238.982 131.577 238.302 133.75C238.058 134.489 237.843 135.287 237.629 136.056C237.865 135.59 238.065 135.198 238.102 135.147C239.233 133.417 242.448 130.712 244.68 131.355C245.047 131.468 245.386 131.657 245.676 131.91C245.965 132.162 246.199 132.473 246.361 132.821C246.523 133.169 246.611 133.547 246.618 133.931C246.625 134.315 246.551 134.697 246.402 135.051C245.811 136.573 244.03 137.527 242.544 137.948C241.058 138.369 238.154 138 237.149 137.859C236.949 138.657 236.757 139.448 236.602 140.224C236.506 140.756 236.38 141.266 236.313 141.806C236.247 142.345 236.166 142.87 236.092 143.388C235.988 144.4 235.87 145.45 235.796 146.44C235.737 147.127 235.693 147.785 235.648 148.443C235.877 147.704 236.387 146.181 236.424 146.056C237.245 144.431 238.466 143.042 239.972 142.02C240.054 141.835 240.156 141.659 240.275 141.495C240.484 141.173 240.759 140.898 241.082 140.689C241.404 140.479 241.767 140.34 242.147 140.28C242.527 140.22 242.915 140.241 243.287 140.341C243.658 140.441 244.004 140.617 244.303 140.86C246.062 142.338 245.619 146.536 244.813 148.443C244.769 148.554 244.111 149.714 243.69 150.439C244.007 150.054 244.303 149.699 244.636 149.271C245.279 148.487 245.944 147.719 246.653 146.891L247.74 145.716C248.095 145.309 248.523 144.932 248.915 144.541C249.839 143.646 250.822 142.782 251.834 141.932C251.14 141.37 248.723 139.323 248.028 137.933C247.333 136.544 246.838 134.6 247.562 133.136C247.721 132.785 247.952 132.471 248.24 132.214C248.528 131.958 248.867 131.765 249.234 131.649C249.602 131.532 249.99 131.495 250.373 131.538C250.756 131.582 251.126 131.706 251.457 131.902C253.416 133.129 253.616 137.305 253.106 139.293C253.106 139.419 252.544 140.815 252.241 141.577C252.854 141.074 253.46 140.564 254.096 140.099C255.929 138.68 257.829 137.305 259.713 135.923L261.435 134.644C261.191 134.444 258.265 132.079 257.481 130.527C256.794 129.145 256.291 127.194 257.016 125.723C257.175 125.372 257.406 125.059 257.694 124.803C257.982 124.548 258.321 124.355 258.688 124.239C259.056 124.123 259.443 124.085 259.826 124.128C260.209 124.171 260.578 124.294 260.911 124.489C262.869 125.723 263.069 129.899 262.559 131.88C262.522 132.035 261.761 134.045 261.539 134.548C262.803 133.602 264.052 132.656 265.234 131.673C266.853 130.351 268.384 128.923 269.817 127.401C269.706 127.312 266.639 124.858 265.84 123.262C265.146 121.88 264.65 119.929 265.375 118.465C265.532 118.114 265.762 117.8 266.05 117.543C266.337 117.287 266.675 117.094 267.042 116.978C267.409 116.861 267.797 116.824 268.179 116.867C268.562 116.911 268.931 117.035 269.262 117.231C271.228 118.458 271.428 122.634 270.918 124.622C270.881 124.747 270.305 126.285 270.009 127.009L270.127 127.076C271.529 125.506 272.788 123.814 273.889 122.02C274.503 121.045 275.042 120.076 275.545 119.116C274.924 118.716 272.123 116.898 271.243 115.509C270.364 114.119 269.698 112.331 270.253 110.793C270.372 110.432 270.566 110.099 270.821 109.816C271.076 109.533 271.388 109.306 271.735 109.151C272.083 108.995 272.46 108.913 272.841 108.911C273.222 108.909 273.599 108.986 273.948 109.138C276.04 110.143 276.69 114.274 276.402 116.322C276.402 116.433 276.106 117.549 275.892 118.362C276.106 117.926 276.343 117.482 276.543 117.061C277.282 115.479 277.91 113.986 278.427 112.626C278.723 111.887 278.967 111.148 279.166 110.535C278.76 109.796 277.178 106.95 277.023 105.361C276.868 103.772 277.119 101.821 278.324 100.712C278.599 100.442 278.927 100.234 279.288 100.1C279.649 99.9654 280.034 99.9087 280.418 99.9331C280.802 99.9575 281.177 100.062 281.517 100.241C281.858 100.42 282.158 100.669 282.396 100.971C283.786 102.826 282.463 106.787 281.265 108.48C281.162 108.62 279.277 110.697 279.255 110.697V110.653C279.048 111.281 278.826 111.954 278.56 112.678C278.072 114.016 277.496 115.531 276.772 117.113C276 118.846 275.129 120.534 274.163 122.168C273.086 123.999 271.85 125.73 270.467 127.342L270.415 127.401C270.992 127.039 272.633 126.1 272.773 126.041C274.68 125.228 278.834 124.762 280.356 126.514C280.6 126.811 280.779 127.156 280.881 127.527C280.984 127.898 281.007 128.286 280.95 128.666C280.893 129.047 280.756 129.411 280.55 129.735C280.343 130.059 280.071 130.337 279.75 130.549C278.412 131.495 276.402 131.289 274.931 130.838C273.268 130.313 270.497 127.778 270.238 127.578C268.797 129.186 267.249 130.695 265.604 132.094C264.643 132.922 263.66 133.72 262.647 134.504C263.157 134.215 263.616 133.957 263.682 133.927C265.582 133.114 269.735 132.648 271.258 134.4C271.503 134.697 271.683 135.042 271.786 135.413C271.889 135.784 271.912 136.172 271.855 136.553C271.798 136.934 271.661 137.298 271.454 137.622C271.247 137.947 270.973 138.224 270.652 138.436C269.322 139.382 267.311 139.175 265.84 138.724C264.37 138.273 261.908 136.144 261.273 135.575L260.112 136.47C258.25 137.896 256.417 139.308 254.606 140.749C253.978 141.259 253.379 141.784 252.773 142.301C253.231 142.042 253.608 141.828 253.675 141.806C255.574 140.985 259.728 140.527 261.251 142.272C261.497 142.568 261.678 142.913 261.781 143.284C261.885 143.655 261.908 144.044 261.851 144.425C261.794 144.806 261.657 145.171 261.449 145.495C261.241 145.819 260.967 146.096 260.645 146.307C259.307 147.253 257.304 147.046 255.833 146.603C254.362 146.159 252.137 144.223 251.398 143.55C250.8 144.104 250.194 144.651 249.639 145.221C249.262 145.612 248.9 145.96 248.531 146.381C248.161 146.802 247.792 147.179 247.466 147.578C246.823 148.362 246.151 149.175 245.537 149.958C245.109 150.498 244.71 151.022 244.31 151.547C244.924 151.037 246.166 150.069 246.276 149.988C248.028 148.894 252.064 147.807 253.837 149.3C254.124 149.558 254.353 149.873 254.51 150.225C254.666 150.577 254.748 150.959 254.748 151.344C254.748 151.729 254.666 152.11 254.51 152.463C254.353 152.815 254.124 153.13 253.837 153.388C252.662 154.518 250.652 154.644 249.129 154.408C247.444 154.141 244.399 152.19 244.022 151.909C243.357 152.782 242.721 153.639 242.13 154.459C240.083 157.29 238.486 159.722 237.392 161.444L237.282 161.614L235.863 160.926C235.936 160.816 236.01 160.712 236.084 160.594C237.23 158.879 238.9 156.455 241.029 153.639C241.701 152.752 242.433 151.813 243.194 150.852C242.402 149.991 241.662 149.082 240.977 148.133C239.344 148.768 235.951 148.798 235.515 148.798C235.449 149.892 235.389 150.956 235.345 151.961C235.197 155.457 235.212 158.369 235.249 160.402V160.646L233.69 159.906C233.69 157.889 233.771 155.147 233.978 151.917C234.044 150.801 234.14 149.611 234.251 148.399C233.815 148.288 230.29 147.379 228.959 146.314C227.755 145.354 226.483 143.787 226.528 142.153C226.524 141.768 226.601 141.386 226.755 141.033C226.908 140.68 227.135 140.363 227.42 140.103C227.704 139.844 228.041 139.647 228.407 139.527C228.773 139.406 229.16 139.364 229.543 139.404C231.842 139.699 233.763 143.41 234.148 145.442C234.148 145.561 234.266 146.92 234.31 147.733C234.362 147.231 234.399 146.75 234.451 146.255C234.554 145.243 234.687 144.23 234.828 143.144C234.909 142.626 234.998 142.102 235.079 141.569C235.16 141.037 235.301 140.49 235.412 139.943C235.693 138.687 236.033 137.423 236.409 136.159C235.523 136.063 232.381 135.694 231.029 134.925C229.676 134.156 228.198 132.796 227.999 131.178C227.936 130.797 227.954 130.408 228.052 130.035C228.15 129.662 228.326 129.314 228.568 129.014C228.81 128.713 229.113 128.468 229.457 128.293C229.801 128.118 230.178 128.018 230.563 128C232.877 127.94 235.345 131.318 236.025 133.269C236.069 133.395 236.402 134.851 236.565 135.657C236.801 134.917 237.023 134.134 237.304 133.38C238.043 131.163 238.878 128.99 239.691 126.795C239.942 126.122 240.179 125.45 240.43 124.784C240.112 124.784 236.365 124.393 234.857 123.528C233.52 122.789 232.027 121.399 231.82 119.781C231.759 119.401 231.779 119.012 231.878 118.64C231.977 118.268 232.153 117.921 232.395 117.621C232.637 117.322 232.939 117.076 233.282 116.901C233.624 116.725 234 116.624 234.384 116.603C236.705 116.544 239.174 119.921 239.854 121.872C239.905 122.02 240.378 124.09 240.474 124.659C241.007 123.181 241.531 121.702 241.953 120.224C242.578 118.229 243.072 116.194 243.431 114.134C243.283 114.134 239.366 113.764 237.829 112.878C236.483 112.138 234.99 110.749 234.791 109.13C234.73 108.75 234.75 108.362 234.849 107.99C234.948 107.618 235.125 107.27 235.366 106.971C235.608 106.671 235.91 106.426 236.253 106.25C236.595 106.075 236.971 105.973 237.356 105.952C239.669 105.9 242.137 109.271 242.817 111.222C242.862 111.355 243.224 112.951 243.379 113.713H243.512C243.817 111.631 243.936 109.526 243.867 107.423C243.867 106.263 243.756 105.161 243.645 104.082C242.906 104.082 239.551 104.082 238.072 103.447C236.594 102.811 235.02 101.643 234.636 100.054C234.533 99.682 234.51 99.2923 234.569 98.9106C234.627 98.529 234.766 98.164 234.975 97.8396C235.184 97.5151 235.46 97.2386 235.783 97.0279C236.107 96.8173 236.472 96.6774 236.853 96.6174C239.152 96.307 241.975 99.389 242.869 101.259C242.914 101.362 243.298 102.449 243.557 103.24C243.505 102.759 243.453 102.257 243.387 101.798C243.157 100.062 242.832 98.4799 242.537 97.0904C242.359 96.2996 242.189 95.6122 242.019 94.9249C241.28 94.5553 238.383 93.0328 237.385 91.7985C236.387 90.5642 235.515 88.7977 235.907 87.2087C235.991 86.8299 236.155 86.4734 236.388 86.1626C236.62 85.8519 236.916 85.594 237.255 85.4061C237.595 85.2182 237.97 85.1044 238.357 85.0724C238.744 85.0405 239.133 85.0909 239.499 85.2205Z" fill="white"/>
<path d="M281.391 120.941C279.58 120.867 275.959 119.012 275.959 119.005C275.959 118.997 277.902 116.994 278.043 116.884C279.662 115.59 283.549 114.053 285.478 115.331C285.793 115.554 286.057 115.84 286.254 116.171C286.451 116.502 286.576 116.871 286.622 117.253C286.667 117.636 286.631 118.024 286.517 118.392C286.403 118.76 286.213 119.099 285.959 119.389C284.924 120.631 282.936 121 281.391 120.941Z" fill="white"/>
</g>
<path d="M260.245 166.292C260.245 166.292 249.255 139.796 243.106 140.949C236.956 142.102 253.638 183.181 253.638 183.181C253.638 183.181 234.303 146.706 221.118 146.706C207.932 146.706 225.951 187.024 242.647 200.461C242.647 200.461 216.284 172.05 200.903 178.192C185.523 184.334 231.664 213.129 231.664 213.129C231.664 213.129 204.857 204.681 207.932 211.207C211.007 217.734 219.358 218.887 219.358 218.887L189.055 220.424H294.525L270.792 218.118C270.792 218.118 295.404 205.834 288.812 200.845C282.219 195.856 267.718 206.603 267.718 206.603C267.718 206.603 292.766 178.96 287.932 168.591C283.098 158.221 261.561 187.408 261.561 187.408C261.561 187.408 279.144 150.165 275.604 143.639C272.064 137.113 260.245 166.292 260.245 166.292Z" fill="#F58A43"/>
<path opacity="0.4" d="M260.245 166.292C260.245 166.292 249.255 139.796 243.106 140.949C236.956 142.102 253.638 183.181 253.638 183.181C253.638 183.181 234.303 146.706 221.118 146.706C207.932 146.706 225.951 187.024 242.647 200.461C242.647 200.461 216.284 172.05 200.903 178.192C185.523 184.334 231.664 213.129 231.664 213.129C231.664 213.129 204.857 204.681 207.932 211.207C211.007 217.734 219.358 218.887 219.358 218.887L189.055 220.424H294.525L270.792 218.118C270.792 218.118 295.404 205.834 288.812 200.845C282.219 195.856 267.718 206.603 267.718 206.603C267.718 206.603 292.766 178.96 287.932 168.591C283.098 158.221 261.561 187.408 261.561 187.408C261.561 187.408 279.144 150.165 275.604 143.639C272.064 137.113 260.245 166.292 260.245 166.292Z" fill="white"/>
<path d="M263.764 167.682C254.089 196.248 254.089 216.462 254.089 216.462C254.089 216.462 265.515 216.898 277.385 208.111" stroke="#263238" stroke-linecap="round" stroke-linejoin="round"/>
<path d="M258.93 183.07C256.935 174.528 254.288 166.152 251.014 158.014" stroke="#263238" stroke-linecap="round" stroke-linejoin="round"/>
<path d="M230.364 166.366L254.968 202.841C254.968 202.841 271.672 188.798 277.385 180.867" stroke="#263238" stroke-linecap="round" stroke-linejoin="round"/>
<path d="M254.532 211.636C254.532 211.636 228.605 199.33 218.058 192.323" stroke="#263238" stroke-linecap="round" stroke-linejoin="round"/>
<path d="M231.258 14.9396H152.293C149.06 14.9396 146.439 17.5603 146.439 20.7932V214.57C146.439 217.803 149.06 220.424 152.293 220.424H231.258C234.491 220.424 237.112 217.803 237.112 214.57V20.7932C237.112 17.5603 234.491 14.9396 231.258 14.9396Z" fill="white" stroke="#263238" stroke-linecap="round" stroke-linejoin="round"/>
<path d="M234.081 50.9115C233.762 50.9115 233.455 50.7846 233.229 50.5587C233.003 50.3327 232.877 50.0263 232.877 49.7068V33.5575C232.9 33.2533 233.038 32.9693 233.262 32.7622C233.486 32.555 233.78 32.4399 234.085 32.4399C234.39 32.4399 234.684 32.555 234.908 32.7622C235.132 32.9693 235.27 33.2533 235.293 33.5575V49.6772C235.296 49.8383 235.267 49.9983 235.208 50.1479C235.148 50.2975 235.059 50.4338 234.946 50.5487C234.833 50.6636 234.699 50.7549 234.55 50.8172C234.402 50.8795 234.242 50.9115 234.081 50.9115Z" fill="#263238"/>
<path d="M234.081 65.8708C233.762 65.8708 233.455 65.7439 233.229 65.518C233.003 65.292 232.877 64.9856 232.877 64.6661V55.6417C232.9 55.3375 233.038 55.0535 233.262 54.8464C233.486 54.6392 233.78 54.5242 234.085 54.5242C234.39 54.5242 234.684 54.6392 234.908 54.8464C235.132 55.0535 235.27 55.3375 235.293 55.6417V64.6661C235.291 64.9863 235.163 65.2927 234.936 65.5184C234.709 65.7442 234.401 65.8708 234.081 65.8708V65.8708Z" fill="#263238"/>
<path d="M224.421 14.9396H145.456C142.223 14.9396 139.602 17.5603 139.602 20.7932V214.57C139.602 217.803 142.223 220.424 145.456 220.424H224.421C227.654 220.424 230.275 217.803 230.275 214.57V20.7932C230.275 17.5603 227.654 14.9396 224.421 14.9396Z" fill="#263238" stroke="#263238" stroke-linecap="round" stroke-linejoin="round"/>
<path d="M224.236 28.6204H145.641V204.866H224.236V28.6204Z" fill="#F58A43"/>
<path d="M173.268 22.9884H194.192" stroke="white" stroke-width="3" stroke-linecap="round" stroke-linejoin="round"/>
<path d="M182.123 211.104C182.123 212.545 181.221 213.713 180.105 213.713C178.989 213.713 178.095 212.545 178.095 211.104C178.095 209.662 178.996 208.487 180.105 208.487C181.214 208.487 182.123 209.655 182.123 211.104Z" fill="white"/>
<path d="M184.939 72.4784C192.466 72.4784 198.568 65.3639 198.568 56.5878C198.568 47.8116 192.466 40.6971 184.939 40.6971C177.412 40.6971 171.31 47.8116 171.31 56.5878C171.31 65.3639 177.412 72.4784 184.939 72.4784Z" fill="white"/>
<path d="M184.939 56.3884C187.796 56.3884 190.112 53.6849 190.112 50.35C190.112 47.015 187.796 44.3115 184.939 44.3115C182.081 44.3115 179.765 47.015 179.765 50.35C179.765 53.6849 182.081 56.3884 184.939 56.3884Z" fill="#263238" stroke="#263238" stroke-linecap="round" stroke-linejoin="round"/>
<path d="M184.939 57.9921C179.765 57.9921 175.53 61.961 175.53 66.8613C175.534 67.3173 175.576 67.7721 175.656 68.2212C176.803 69.5606 178.227 70.6358 179.829 71.3729C181.432 72.1101 183.175 72.4918 184.939 72.4918C186.702 72.4918 188.445 72.1101 190.048 71.3729C191.65 70.6358 193.074 69.5606 194.222 68.2212C194.295 67.7715 194.335 67.3169 194.34 66.8613C194.34 61.961 190.127 57.9921 184.939 57.9921Z" fill="#263238" stroke="#263238" stroke-linecap="round" stroke-linejoin="round"/>
<path d="M201.509 125.804H168.368C167.491 125.77 166.663 125.388 166.068 124.744C165.472 124.099 165.156 123.245 165.19 122.367V101.909C165.19 90.1206 174.059 80.5271 184.939 80.5271C195.818 80.5271 204.68 90.1354 204.68 101.909V122.353C204.699 122.788 204.632 123.222 204.482 123.631C204.333 124.04 204.105 124.415 203.81 124.736C203.516 125.057 203.161 125.316 202.766 125.499C202.371 125.683 201.944 125.786 201.509 125.804V125.804ZM171.539 118.931H198.331V101.931C198.331 93.9343 192.322 87.4229 184.939 87.4229C177.555 87.4229 171.539 93.9343 171.539 101.931V118.931Z" fill="#263238"/>
<path d="M207.947 111.843H161.93V155.376H207.947V111.843Z" fill="white"/>
<path d="M191.642 141.813L188.228 133.602C188.983 133.031 189.593 132.291 190.011 131.441C190.428 130.591 190.64 129.656 190.63 128.709C190.63 125.435 188.183 122.796 185.16 122.796C182.137 122.796 179.698 125.442 179.698 128.709C179.687 129.655 179.898 130.591 180.313 131.44C180.729 132.29 181.339 133.031 182.093 133.602L178.686 141.813H191.642Z" fill="#263238" stroke="#263238" stroke-linecap="round" stroke-linejoin="round"/>
<path d="M170.918 194.496C170.989 194.548 171.074 194.577 171.162 194.578C171.225 194.577 171.286 194.562 171.342 194.532C171.397 194.503 171.445 194.46 171.48 194.408L224.236 122.649V121.289L170.859 193.935C170.826 193.975 170.801 194.022 170.786 194.072C170.771 194.123 170.766 194.176 170.772 194.228C170.777 194.28 170.793 194.33 170.818 194.377C170.843 194.423 170.877 194.463 170.918 194.496V194.496Z" fill="white"/>
<path d="M213.623 54.474C213.592 54.5166 213.569 54.565 213.556 54.6164C213.544 54.6678 213.542 54.7211 213.55 54.7734C213.558 54.8257 213.577 54.8758 213.604 54.9208C213.632 54.9659 213.669 55.0049 213.712 55.0357C213.798 55.0973 213.906 55.1225 214.011 55.1059C214.116 55.0894 214.21 55.0323 214.273 54.947L224.236 41.3993V40.069L213.623 54.474Z" fill="white"/>
<path d="M145.641 148.317L210.77 59.7512C210.833 59.6649 210.859 59.5573 210.842 59.4519C210.825 59.3466 210.768 59.2522 210.681 59.1895C210.595 59.1267 210.488 59.1008 210.382 59.1175C210.277 59.1341 210.182 59.1919 210.12 59.2782L145.67 146.957L145.641 148.317Z" fill="white"/>
<path d="M164.798 203.232C164.861 203.231 164.923 203.216 164.979 203.188C165.036 203.16 165.085 203.12 165.123 203.07L168.819 198.074C168.85 198.031 168.873 197.983 168.886 197.931C168.898 197.88 168.9 197.826 168.892 197.774C168.884 197.722 168.865 197.672 168.838 197.627C168.81 197.582 168.773 197.543 168.73 197.512C168.644 197.45 168.536 197.425 168.431 197.442C168.326 197.458 168.232 197.515 168.168 197.601L164.473 202.589C164.441 202.632 164.418 202.68 164.405 202.731C164.392 202.782 164.389 202.835 164.396 202.887C164.404 202.94 164.422 202.99 164.449 203.035C164.476 203.08 164.512 203.12 164.554 203.151C164.624 203.206 164.71 203.235 164.798 203.232V203.232Z" fill="white"/>
<path d="M224.236 137.016L180.925 195.93C180.881 195.99 180.855 196.06 180.849 196.134C180.843 196.208 180.858 196.282 180.891 196.348C180.925 196.414 180.977 196.469 181.04 196.508C181.104 196.546 181.176 196.566 181.25 196.566C181.314 196.567 181.376 196.553 181.433 196.524C181.49 196.496 181.539 196.454 181.576 196.403L224.236 138.369V137.016Z" fill="white"/>
<path d="M72.1226 54.2153C72.8554 52.5915 73.2092 50.8223 73.1573 49.0416C73.1573 45.7378 69.1588 43.8235 64.4581 43.2988C59.7574 42.774 57.6732 44.6883 58.3679 45.9078C59.0899 46.9136 59.9712 47.7948 60.9769 48.5168C60.9769 48.5168 56.2763 45.9078 53.1425 47.9994C50.0087 50.0911 54.5394 49.2189 53.6673 51.3032C52.7951 53.3875 47.9245 52.5227 46.7049 58.0881C45.4854 63.6536 48.9666 69.2264 45.8328 71.6654C42.699 74.1044 33.2681 70.7932 30.5187 76.8834C27.7692 82.9736 31.6717 85.6787 25.0641 89.5072C18.4566 93.3357 13.6377 97.0756 15.5519 106.47C17.4662 115.863 23.7338 119.152 36.0915 115.834C48.4492 112.515 47.5771 105.043 51.6126 97.3564C55.648 89.6698 61.886 91.2663 63.8003 86.913C65.7146 82.5597 63.2755 77.3417 63.4529 73.3357C63.6303 69.3298 67.6288 68.4651 69.1957 63.7275C70.7626 58.9898 72.1226 54.2153 72.1226 54.2153Z" fill="#263238" stroke="#263238" stroke-linecap="round" stroke-linejoin="round"/>
<path d="M16.9932 106.292C16.6691 106.947 16.5044 107.668 16.5128 108.399" stroke="white" stroke-width="0.5" stroke-linecap="round" stroke-linejoin="round"/>
<path d="M65.4411 50.7638C65.4411 50.7638 63.2682 48.2509 67.4515 49.4186C72.7212 50.8968 66.535 56.9944 64.1551 58.2213C59.3805 60.6677 53.0686 59.8843 49.3731 64.3337C46.0176 68.3544 50.5483 72.545 48.5379 75.7306C46.5276 78.9161 38.4788 77.0683 35.8032 80.9043C33.1277 84.7402 40.6591 92.9737 32.9503 97.497C27.3775 100.771 21.2726 102.028 18.3236 104.622" stroke="white" stroke-width="0.5" stroke-linecap="round" stroke-linejoin="round"/>
<path d="M52.943 65.6344C52.4862 66.7032 52.3476 67.8812 52.5438 69.0269C53.209 71.8724 57.0671 77.2382 53.549 80.2538C50.0309 83.2693 43.9925 83.0993 42.9947 86.6322C41.9969 90.1651 43.9999 99.8695 40.6517 104.371C37.3036 108.872 30.7626 108.561 27.2445 111.577C23.7264 114.592 24.229 116.27 24.229 116.27" stroke="white" stroke-width="0.5" stroke-linecap="round" stroke-linejoin="round"/>
<path d="M54.7168 62.3232C54.4122 62.7538 54.1309 63.2003 53.8742 63.661" stroke="white" stroke-width="0.5" stroke-linecap="round" stroke-linejoin="round"/>
<path d="M74.3768 106.026L75.2268 112.678C75.2268 112.678 79.6614 117.113 82.9208 119.855C86.1802 122.597 94.532 128.399 94.532 128.399L90.297 129.603C90.297 129.603 76.4537 121.399 73.719 120.734C70.9844 120.069 68.937 116.122 68.0871 114.925C67.2371 113.727 72.1521 104.829 74.3768 106.026Z" fill="white" stroke="#263238" stroke-linecap="round" stroke-linejoin="round"/>
<path d="M82.8321 214.252C82.8321 214.252 87.0154 217.785 88.7449 218.968C90.4744 220.15 92.4921 220.683 92.1743 221.326C91.8565 221.969 90.9917 222.612 86.9193 222.065C82.8469 221.518 81.6717 220.136 80.9178 219.921C80.1639 219.707 78.3458 220.246 76.9563 219.389C75.5668 218.532 77.7693 213.425 77.7693 213.425C78.3796 214.138 79.2227 214.613 80.1493 214.764C81.076 214.916 82.0263 214.734 82.8321 214.252Z" fill="white" stroke="#263238" stroke-linecap="round" stroke-linejoin="round"/>
<path d="M92.1595 221.326C92.1628 221.291 92.1628 221.257 92.1595 221.222C89.8083 221.438 87.4374 221.215 85.1677 220.564C82.5365 219.944 81.7604 218.547 79.2549 218.547C78.2716 218.556 77.2941 218.396 76.365 218.074C76.3381 218.32 76.3718 218.57 76.4633 218.8C76.5547 219.031 76.7011 219.236 76.8898 219.397C78.2793 220.254 80.1048 219.714 80.8513 219.929C81.5978 220.143 82.7804 221.54 86.8528 222.072C90.9252 222.604 91.8343 221.969 92.1595 221.326Z" fill="white" stroke="#263238" stroke-linecap="round" stroke-linejoin="round"/>
<path d="M60.9326 71.4067C60.9326 71.4067 61.7382 76.8317 60.7035 79.0195C59.6687 81.2072 56.4315 81.4437 53.6673 81.9093C50.903 82.375 44.5542 84.7918 45.2415 91.0224C45.9289 97.253 53.8964 110.749 53.8964 114.555C53.8964 118.362 51.4721 120.32 48.8188 127.704C46.1654 135.087 46.5128 148.82 47.3406 157.704C47.9473 163.567 49.1054 169.36 50.7996 175.006C50.7996 175.006 44.1477 185.738 41.1913 190.35C38.2349 194.962 27.8875 215.043 27.8875 215.043C27.8875 215.043 27.8875 215.731 29.4987 216.196C30.6323 216.472 31.8051 216.549 32.9651 216.425C32.9651 216.425 52.8025 192.545 56.498 188.51C60.1935 184.474 63.6525 177.423 64.1107 174.201C64.569 170.978 63.9999 151.244 63.9999 151.244C63.9999 151.244 68.1462 161.163 71.3908 166.24C73.3588 169.348 75.1646 172.555 76.801 175.849C76.3467 180.025 76.3467 184.238 76.801 188.413C77.6067 194.178 76.9267 212.7 77.7323 214.201C78.5379 215.701 81.6643 215.073 82.3591 214.385C83.0538 213.698 83.379 209.212 83.379 209.212C83.379 209.212 84.7611 195.169 85.5963 188.561C86.4315 181.954 87.8136 176.329 87.3332 174.829C86.8528 173.328 83.9851 157.29 81.79 149.699C79.5948 142.109 72.9208 127.896 71.4426 124.208C69.9644 120.52 69.1292 117.164 69.3657 116.011C69.6022 114.858 74.0959 107.94 75.2785 106.093C75.9527 104.84 76.3245 103.447 76.3643 102.025C76.4041 100.603 76.1107 99.1918 75.5076 97.9034C74.1255 94.9027 75.5076 90.8598 75.2785 88.443C75.0494 86.0261 71.4721 84.9766 69.6244 84.0601C67.7766 83.1436 67.0819 81.0594 67.0819 79.3299C67.1947 77.873 67.5468 76.4447 68.124 75.1022C68.124 75.1022 62.433 71.4067 60.9326 71.4067Z" fill="white" stroke="#263238" stroke-linecap="round" stroke-linejoin="round"/>
<path d="M74.9164 96.0853C74.3086 94.5408 73.8024 92.9582 73.4012 91.3477" stroke="#263238" stroke-linecap="round" stroke-linejoin="round"/>
<path d="M59.9348 108.931C59.9348 108.931 62.0191 109.389 66.195 107.305" stroke="#263238" stroke-linecap="round" stroke-linejoin="round"/>
<path d="M81.8121 149.626C79.7205 142.353 73.5194 129.071 71.6643 124.688C62.7951 128.014 54.5024 125.176 50.6074 123.343C50.0457 124.57 49.4396 125.989 48.8188 127.704C46.1654 135.095 46.5128 148.82 47.3406 157.704C47.9473 163.567 49.1054 169.36 50.7996 175.006C50.7996 175.006 44.1477 185.738 41.1913 190.35C38.2349 194.962 27.8875 215.043 27.8875 215.043C27.8875 215.043 27.8875 215.731 29.4987 216.196C30.6323 216.472 31.8051 216.55 32.9651 216.425C32.9651 216.425 52.8025 192.545 56.498 188.51C60.1935 184.474 63.6525 177.423 64.1107 174.201C64.569 170.978 63.9999 151.244 63.9999 151.244C63.9999 151.244 68.1462 161.163 71.3908 166.241C73.3588 169.348 75.1646 172.555 76.801 175.849C76.3467 180.025 76.3467 184.238 76.801 188.414C77.6067 194.178 76.9267 212.7 77.7323 214.201C78.5379 215.701 81.6643 215.073 82.3591 214.385C83.0538 213.698 83.379 209.212 83.379 209.212C83.379 209.212 84.7611 195.169 85.5963 188.561C86.4315 181.954 87.8136 176.329 87.3332 174.829C86.8528 173.329 84.0073 157.238 81.8121 149.626Z" fill="#263238" stroke="#263238" stroke-linecap="round" stroke-linejoin="round"/>
<path d="M127.001 142.301V140.793H128.264V128.953H127.001H114.525H113.261V140.793H114.525V142.301H113.253V145.05H118.124V144.127H123.401V145.05H128.272V142.301H127.001Z" fill="#F58A43" stroke="#263238" stroke-linecap="round" stroke-linejoin="round"/>
<path d="M46.365 125.413H133.401C133.75 125.413 134.085 125.551 134.331 125.798C134.578 126.045 134.717 126.379 134.717 126.728V129.374C134.717 129.723 134.578 130.058 134.331 130.305C134.085 130.551 133.75 130.69 133.401 130.69H46.365V125.405V125.413Z" fill="#F58A43" stroke="#263238" stroke-linecap="round" stroke-linejoin="round"/>
<path d="M108.834 124.622H103.534C103.13 124.622 102.803 124.949 102.803 125.354V130.756C102.803 131.16 103.13 131.488 103.534 131.488H108.834C109.238 131.488 109.565 131.16 109.565 130.756V125.354C109.565 124.949 109.238 124.622 108.834 124.622Z" fill="#F58A43" stroke="#263238" stroke-linecap="round" stroke-linejoin="round"/>
<path d="M49.088 130.278C50.3143 122.789 45.2378 115.724 37.7492 114.498C30.2607 113.272 23.1958 118.348 21.9695 125.837C20.7433 133.325 25.8198 140.39 33.3084 141.616C40.797 142.843 47.8617 137.766 49.088 130.278Z" fill="#F58A43" stroke="#263238" stroke-linecap="round" stroke-linejoin="round"/>
<path d="M38.3531 128.022C39.1497 127.64 39.8257 127.047 40.3068 126.306C40.7879 125.565 41.0556 124.707 41.0804 123.824C41.0804 121.126 38.597 118.938 35.5298 118.938C32.4625 118.938 29.9791 121.156 29.9791 123.824C30.0023 124.707 30.2693 125.567 30.7506 126.307C31.2319 127.048 31.9088 127.642 32.7064 128.022C31.9093 128.404 31.233 128.999 30.7519 129.741C30.2708 130.483 30.0034 131.343 29.9791 132.227C29.9791 134.925 32.4625 137.113 35.5298 137.113C38.597 137.113 41.0804 134.895 41.0804 132.227C41.0545 131.344 40.7865 130.484 40.3055 129.743C39.8246 129.001 39.1492 128.406 38.3531 128.022V128.022Z" fill="white" stroke="#263238" stroke-linecap="round" stroke-linejoin="round"/>
<path d="M91.8195 130.808C91.8195 130.808 96.1211 132.626 97.4515 132.626C98.7818 132.626 100.319 131.289 101.08 129.67C101.842 128.051 101.82 127.283 101.369 127.667L100.415 128.406C100.415 128.406 101.154 126.788 100.319 126.98C99.7408 127.172 99.2607 127.584 98.9814 128.125C98.9814 128.125 98.8853 126.691 98.124 127.386C97.6202 127.843 97.1713 128.356 96.7863 128.916C96.7863 128.916 96.6902 127.105 96.2098 127.578C95.7294 128.051 93.926 130.631 93.926 130.631L91.8195 130.808Z" fill="white" stroke="#263238" stroke-linecap="round" stroke-linejoin="round"/>
<path d="M96.7863 128.901C96.7863 128.901 96.498 131.193 95.0716 131.577Z" fill="white"/>
<path d="M96.7863 128.901C96.7863 128.901 96.498 131.193 95.0716 131.577" stroke="#263238" stroke-linecap="round" stroke-linejoin="round"/>
<path d="M98.9814 128.14C98.9814 128.14 98.2423 131.762 97.0745 132.338Z" fill="white"/>
<path d="M98.9814 128.14C98.9814 128.14 98.2423 131.762 97.0745 132.338" stroke="#263238" stroke-linecap="round" stroke-linejoin="round"/>
<path d="M100.415 128.421C100.034 129.742 99.5216 131.023 98.8853 132.242Z" fill="white"/>
<path d="M100.415 128.421C100.034 129.742 99.5216 131.023 98.8853 132.242" stroke="#263238" stroke-linecap="round" stroke-linejoin="round"/>
<path d="M69.3509 83.8384C68.6065 83.3358 68.0036 82.6505 67.5998 81.8482C67.1961 81.0458 67.005 80.1533 67.0449 79.256C67.1775 77.8221 67.5419 76.4193 68.124 75.1022C68.124 75.1022 62.4699 71.4067 60.9696 71.4067C60.9696 71.4067 61.7752 76.8317 60.7404 79.0195C60.4013 79.7 59.8482 80.2504 59.1661 80.5864C60.5326 84.2653 62.3844 87.7452 64.6724 90.9337C66.7493 93.5428 67.7619 88.0439 69.3509 83.8384Z" fill="white" stroke="#263238" stroke-linecap="round" stroke-linejoin="round"/>
<path d="M51.9008 82.6559C50.4904 82.8967 49.1553 83.4621 48.0009 84.3074C46.8465 85.1527 45.9044 86.2547 45.2489 87.5266C42.9725 91.9168 33.0242 111.843 33.8742 113.033C38.7079 119.833 56.2911 124.725 58.0797 126.514C59.8678 128.384 61.8304 130.08 63.9407 131.577C65.7294 132.715 69.2992 132.227 69.9496 131.902C70.6 131.577 71.0878 130.113 69.9496 130.113C69.5148 130.119 69.0911 129.976 68.7494 129.706C68.4077 129.437 68.1687 129.059 68.0723 128.635C67.9097 127.985 69.8609 129.286 70.8365 128.798C71.8121 128.31 68.6562 126.529 67.6806 125.716C66.705 124.903 65.892 123.772 64.5911 123.772C63.2903 123.772 60.8439 123.772 60.8439 123.772C60.8439 123.772 54.8572 119.433 51.2356 116.204C48.4176 113.661 45.3438 111.417 42.0634 109.507L53.039 91.4512" fill="white"/>
<path d="M51.9008 82.6559C50.4904 82.8967 49.1553 83.4621 48.0009 84.3074C46.8465 85.1527 45.9044 86.2547 45.2489 87.5266C42.9725 91.9168 33.0242 111.843 33.8742 113.033C38.7079 119.833 56.2911 124.725 58.0797 126.514C59.8678 128.384 61.8304 130.08 63.9407 131.577C65.7294 132.715 69.2992 132.227 69.9496 131.902C70.6 131.577 71.0878 130.113 69.9496 130.113C69.5148 130.119 69.0911 129.976 68.7494 129.706C68.4077 129.437 68.1687 129.059 68.0723 128.635C67.9097 127.985 69.8609 129.286 70.8365 128.798C71.8121 128.31 68.6562 126.529 67.6806 125.716C66.705 124.903 65.892 123.772 64.5911 123.772C63.2903 123.772 60.8439 123.772 60.8439 123.772C60.8439 123.772 54.8572 119.433 51.2356 116.204C48.4176 113.661 45.3438 111.417 42.0634 109.507L53.039 91.4512" stroke="#263238" stroke-linecap="round" stroke-linejoin="round"/>
<path d="M67.6732 125.723C66.6976 124.91 65.8846 123.779 64.5838 123.779C63.283 123.779 60.8365 123.779 60.8365 123.779C60.8365 123.779 54.8498 119.441 51.2282 116.211C48.4102 113.668 45.3364 111.424 42.056 109.515L46.4463 102.286C44.2018 100.928 41.6344 100.195 39.0109 100.165C36.0546 106.329 33.4012 112.419 33.8373 113.062C38.671 119.862 56.2541 124.755 58.0427 126.544C59.8308 128.414 61.7934 130.109 63.9038 131.606C65.6924 132.745 69.2623 132.257 69.9127 131.932C70.5631 131.606 71.0509 130.143 69.9127 130.143C69.4778 130.149 69.0542 130.005 68.7125 129.736C68.3708 129.467 68.1318 129.089 68.0354 128.665C67.8728 128.014 69.824 129.315 70.7996 128.827C71.7752 128.34 68.6488 126.544 67.6732 125.723Z" fill="white" stroke="#263238" stroke-linecap="round" stroke-linejoin="round"/>
<path d="M73.6229 63.4467C73.0464 62.2937 73.0464 61.3699 73.2756 59.7512C73.5047 58.1326 72.1226 54.208 72.1226 54.208C70.7109 56.647 66.6311 58.0957 64.8277 58.6426C62.8395 59.2487 65.7442 60.6234 65.4337 62.4637C65.1233 64.3041 61.1543 65.3684 61.1543 65.3684C61.1543 65.3684 59.994 62.9811 58.3827 62.9811C56.7715 62.9811 55.6259 66.6766 56.5424 68.6352C56.7812 69.1778 57.1972 69.6232 57.7222 69.8985C58.2472 70.1737 58.8501 70.2625 59.4322 70.1504C59.4322 70.1504 59.3214 73.6167 61.5091 74.6515C63.8434 75.7653 66.2787 76.6538 68.7818 77.3048C70.164 77.534 71.5461 76.8466 72.1226 74.7697C72.5734 72.6767 72.8821 70.5556 73.0464 68.4209C74.0142 67.7876 74.9047 67.0435 75.6998 66.2036C76.2541 65.4053 74.1994 64.5997 73.6229 63.4467Z" fill="white" stroke="#263238" stroke-linecap="round" stroke-linejoin="round"/>
<path d="M71.3761 63.4985C71.3761 64.1341 71.1691 64.6441 70.9178 64.6441C70.6665 64.6441 70.4596 64.1341 70.4596 63.4985C70.4596 62.8629 70.6665 62.3529 70.9178 62.3529C71.1691 62.3529 71.3761 62.8629 71.3761 63.4985Z" fill="#263238"/>
<path d="M69.3879 61.5917C69.3879 61.5917 70.6148 60.2096 71.5313 60.52" stroke="#263238" stroke-linecap="round" stroke-linejoin="round"/>
<path d="M71.5313 71.0666C70.9774 71.2337 70.3895 71.2534 69.8257 71.1238C69.2618 70.9942 68.7415 70.7197 68.3162 70.3275" stroke="#263238" stroke-linecap="round" stroke-linejoin="round"/>
<path d="M27.9392 215.043C27.9392 215.043 25.1824 220.572 25.2859 221.326C25.3893 222.08 30.8587 226.041 33.416 227.431C35.9732 228.82 40.6 229.042 40.2748 227.113C39.9496 225.184 35.5593 223.898 34.4876 221C33.9169 219.502 33.4235 217.975 33.0095 216.425C31.2229 216.452 29.4652 215.973 27.9392 215.043V215.043Z" fill="white" stroke="#263238" stroke-linecap="round" stroke-linejoin="round"/>
<path d="M40.2896 227.142C38.3218 227.406 36.3194 227.122 34.5024 226.322C30.5335 224.6 26.6902 221.082 25.6333 220.084C25.4455 220.482 25.3256 220.91 25.2785 221.348C25.3893 222.087 30.8513 226.063 33.4086 227.453C35.9658 228.842 40.5556 229.034 40.2896 227.142Z" fill="white" stroke="#263238" stroke-linecap="round" stroke-linejoin="round"/>
</svg>
