<svg width="40" height="40" viewBox="0 0 40 40" fill="none" xmlns="http://www.w3.org/2000/svg">
<mask id="mask0_618_23374" style="mask-type:alpha" maskUnits="userSpaceOnUse" x="0" y="0" width="40" height="40">
<path d="M36.4888 36.0335C36.3802 36.2275 36.2212 36.3888 36.0285 36.5002C35.8358 36.6116 35.6165 36.6691 35.3937 36.6666H4.6061C4.38334 36.6691 4.16404 36.6116 3.97131 36.5002C3.77859 36.3888 3.61959 36.2275 3.51107 36.0335C3.39476 35.8427 3.33325 35.6237 3.33325 35.4005C3.33325 35.1772 3.39476 34.9582 3.51107 34.7674C5.88003 30.6976 9.67193 27.6431 14.1598 26.1894C12.0087 24.9137 10.337 22.969 9.40161 20.654C8.46624 18.3389 8.31888 15.7817 8.98219 13.375C9.6455 10.9684 11.0828 8.8455 13.0732 7.33248C15.0637 5.81945 17.4972 5 19.9999 5C22.5027 5 24.9362 5.81945 26.9266 7.33248C28.9171 8.8455 30.3543 10.9684 31.0176 13.375C31.681 15.7817 31.5336 18.3389 30.5982 20.654C29.6628 22.969 27.9912 24.9137 25.84 26.1894C30.3279 27.6431 34.1198 30.6976 36.4888 34.7674C36.6051 34.9582 36.6666 35.1772 36.6666 35.4005C36.6666 35.6237 36.6051 35.8427 36.4888 36.0335Z" fill="black"/>
</mask>
<g mask="url(#mask0_618_23374)">
<rect width="40" height="40" fill="#90CAF9"/>
</g>
</svg>
