<svg width="92" height="122" viewBox="0 0 92 122" fill="none" xmlns="http://www.w3.org/2000/svg">
    <path d="M5.30786 75.4883H87.0039V108.964C87.0039 112.379 85.6456 115.653 83.2278 118.068C80.81 120.482 77.5308 121.838 74.1115 121.838H18.2003C14.781 121.838 11.5018 120.482 9.08397 118.068C6.66617 115.653 5.30786 112.379 5.30786 108.964V75.4883Z" stroke="black" stroke-width="0.1256" stroke-miterlimit="10" />
    <path d="M5.30664 75.4897L16.6829 67.7832H23.2813" stroke="black" stroke-width="0.1256" stroke-miterlimit="10" />
    <path d="M64.0444 67.709H75.4078L87.0033 75.4902" stroke="black" stroke-width="0.1256" stroke-miterlimit="10" />
    <path d="M16.8289 68.9551V73.7259" stroke="black" stroke-width="0.1256" stroke-miterlimit="10" />
    <path d="M75.2896 68.9551V73.7259" stroke="black" stroke-width="0.1256" stroke-miterlimit="10" />
    <path d="M38.6587 96.924C38.6587 96.924 40.2574 94.1946 41.856 96.924" stroke="black" stroke-width="0.1256" stroke-miterlimit="10" />
    <path d="M49.4497 96.924C49.4497 96.924 51.0484 94.1946 52.647 96.924" stroke="black" stroke-width="0.1256" stroke-miterlimit="10" />
    <path d="M38.3279 100.865C40.3207 102.791 42.9706 103.89 45.7431 103.941C48.5156 103.992 51.2043 102.991 53.2669 101.14" stroke="black" stroke-width="0.1256" stroke-miterlimit="10" />
    <path d="M35.0572 101.984C35.7878 101.984 36.3802 101.163 36.3802 100.149C36.3802 99.136 35.7878 98.3145 35.0572 98.3145C34.3265 98.3145 33.7341 99.136 33.7341 100.149C33.7341 101.163 34.3265 101.984 35.0572 101.984Z" fill="#DEE2E6" />
    <path d="M56.1519 101.984C56.8826 101.984 57.4749 101.163 57.4749 100.149C57.4749 99.136 56.8826 98.3145 56.1519 98.3145C55.4212 98.3145 54.8289 99.136 54.8289 100.149C54.8289 101.163 55.4212 101.984 56.1519 101.984Z" fill="#DEE2E6" />
    <path d="M36.564 30.8716C36.564 30.8716 21.2942 24.7062 16.2227 15.5684C16.2227 15.5684 13.4663 32.9083 0.181152 36.1562C0.181152 36.1562 15.451 57.3494 42.7933 58.1201C42.7933 58.1201 52.6056 51.7345 54.976 43.7527" stroke="black" stroke-width="0.08373" stroke-miterlimit="10" />
    <path d="M22.9297 26.6523C22.9297 26.6523 19.9897 38.1756 10.5081 41.5519" stroke="black" stroke-width="0.08373" stroke-miterlimit="10" />
    <path d="M28.977 30.9668C28.977 30.9668 26.037 42.4901 16.5554 45.8664" stroke="black" stroke-width="0.08373" stroke-miterlimit="10" />
    <path d="M35.561 34.9727C35.561 34.9727 32.6209 46.496 23.1394 49.8722" stroke="black" stroke-width="0.08373" stroke-miterlimit="10" />
    <path d="M41.9204 38.1992C41.9204 38.1992 38.9804 49.7225 29.4988 53.0988" stroke="black" stroke-width="0.08373" stroke-miterlimit="10" />
    <path d="M35.2776 22.9824C35.2776 22.9824 38.8791 37.2947 49.5366 43.0931C49.5366 43.0931 74.0859 43.7536 91.7996 19.6061C91.7996 19.6061 80.1129 18.5786 75.2619 0.302734C75.262 0.302734 68.4264 13.8811 35.2776 22.9824Z" stroke="black" stroke-width="0.08373" stroke-miterlimit="10" />
    <path d="M81.4023 25.824C81.4023 25.824 70.6053 20.8082 69.0356 10.8789" stroke="black" stroke-width="0.08373" stroke-miterlimit="10" />
    <path d="M75.219 29.7146C75.219 29.7146 64.4219 24.6988 62.8523 14.7695" stroke="black" stroke-width="0.08373" stroke-miterlimit="10" />
    <path d="M69.0356 34.1247C69.0356 34.1247 58.2386 29.1089 56.6689 19.1797" stroke="black" stroke-width="0.08373" stroke-miterlimit="10" />
    <path d="M62.4602 37.1872C62.4602 37.1872 51.6631 32.1714 50.0935 22.2422" stroke="black" stroke-width="0.08373" stroke-miterlimit="10" />
    <path opacity="0.17" d="M87.0035 75.4878H5.30811L16.6822 67.7823L21.7536 67.7757L23.2781 67.7737C25.1189 70.4859 27.1845 73.039 29.4531 75.406H48.317C53.8139 73.4193 59.0789 70.8436 64.02 67.7241L75.4092 67.709L87.0035 75.4878Z" fill="black" />
    <path d="M62.1978 41.9902C66.8269 56.082 75.6489 57.1299 75.6489 57.1299C72.4783 61.3821 68.5114 64.9795 63.9683 67.7225C58.9633 70.8572 53.6431 73.4594 48.0947 75.4863" stroke="black" stroke-width="0.08373" stroke-miterlimit="10" />
    <path d="M66.4651 62.9255C66.4651 62.9255 55.668 57.9097 54.0984 47.9805" stroke="black" stroke-width="0.08373" stroke-miterlimit="10" />
    <path d="M46.5967 73.0661C46.5967 73.0661 35.7996 68.0504 34.23 58.1211" stroke="black" stroke-width="0.08373" stroke-miterlimit="10" />
    <path d="M48.6548 55.2402C48.6548 55.2402 52.6973 64.268 58.7979 66.0295" stroke="black" stroke-width="0.08373" stroke-miterlimit="10" />
    <path d="M42.4258 59.3047C42.4258 59.3047 46.4683 68.3325 52.5689 70.094" stroke="black" stroke-width="0.08373" stroke-miterlimit="10" />
    <path d="M29.4526 75.4052C23.8876 70.4739 20.2706 63.7188 19.2544 56.3588L24.4362 55.2578" stroke="black" stroke-width="0.08373" stroke-miterlimit="10" />
</svg>