<svg width="120" height="120" viewBox="0 0 120 120" fill="none" xmlns="http://www.w3.org/2000/svg">
<g clip-path="url(#clip0_220_5002)">
<mask id="mask0_220_5002" style="mask-type:alpha" maskUnits="userSpaceOnUse" x="0" y="0" width="120" height="120">
<path fill-rule="evenodd" clip-rule="evenodd" d="M57.9651 43.2166C57.8101 43.9897 58.0807 44.7869 58.6709 45.2966C59.0176 45.576 59.4458 45.7304 59.8871 45.7358C60.1717 45.7965 60.4659 45.7965 60.7505 45.7358L71.2634 40.3369C74.5647 41.3885 78.005 41.9151 81.4629 41.8973C94.6441 41.8973 105 34.8585 105 25.9006C105 18.5021 98.0563 12.3034 87.7001 10.3843V10.3834C86.617 10.1852 85.5811 10.919 85.3858 12.0232C85.1914 13.1274 85.9112 14.1844 86.9944 14.3825C95.3114 15.6224 101.117 20.3813 101.117 25.6606C101.117 32.1788 92.1336 37.6581 81.5024 37.6581C78.1959 37.6697 74.9088 37.1297 71.774 36.0585C71.3003 35.8389 70.7565 35.8389 70.2828 36.0585L62.8688 40.0576L64.5553 33.0591C64.7164 32.4235 64.5544 31.7478 64.1244 31.2595C62.7199 29.7428 61.9222 27.7459 61.888 25.6606C61.888 20.302 68.008 15.4225 76.4027 14.0228C77.4815 13.8389 78.2153 12.8052 78.0507 11.7037C77.8694 10.604 76.8563 9.85502 75.775 10.0237C65.3004 11.7832 57.9653 18.0221 57.9653 25.6205C57.9959 28.2807 58.8926 30.8551 60.5152 32.9385L57.9651 43.2166ZM31.4862 66.0119H101.666L101.787 65.969C102.394 65.9726 102.967 66.2636 103.336 66.7572C103.704 67.25 103.828 67.89 103.669 68.489V68.4881L100.374 81.3257C100.104 82.4308 99.0057 83.1021 97.9225 82.8254C96.8393 82.5494 96.1808 81.4309 96.4514 80.3258L99.1185 70.0084H32.9786L23.2886 106.001H86.7991C87.595 105.987 88.3656 105.711 88.9952 105.214C89.6239 104.715 90.0784 104.024 90.2903 103.242L93.2719 91.6441C93.5538 90.5398 94.6597 89.8775 95.7429 90.164C96.8269 90.4514 97.4767 91.5788 97.1947 92.684L94.292 104.241C93.8822 105.886 92.9462 107.346 91.6318 108.39C90.3175 109.432 88.7001 109.999 87.0346 110H20.6974C20.0783 110.006 19.4943 109.709 19.1282 109.2C18.9198 108.831 18.7859 108.423 18.736 108L15.0092 47.0941C14.926 45.7069 15.4094 44.3465 16.3428 43.3342C17.2928 42.3094 18.608 41.7184 19.9916 41.6952H34.4273C36.337 41.7836 38.1146 42.7182 39.2915 44.2544V44.2536L43.45 49.7329H87.3864C87.9135 49.7329 88.4188 49.9489 88.7874 50.3328C89.1561 50.7166 89.3584 51.2352 89.3478 51.7726V59.771C89.3478 60.8752 88.4696 61.7706 87.3864 61.7706C86.3032 61.7706 85.4249 60.8752 85.4249 59.771V53.7722H42.7058C42.1077 53.7758 41.542 53.4946 41.176 53.0126L36.3896 46.7334C35.9247 46.1067 35.1988 45.7372 34.4282 45.7336H19.9924C19.6982 45.7247 19.4145 45.8407 19.2078 46.0541C19.0038 46.2656 18.904 46.5584 18.9329 46.8539L21.7578 96.0849L29.6036 67.4919C29.833 66.6225 30.6036 66.0172 31.4862 66.0119ZM57.9712 95.9451C57.9712 95.4122 58.1805 94.9007 58.5517 94.5248C59.9519 93.0841 61.8582 92.2735 63.8476 92.2735C65.8371 92.2735 67.7434 93.0841 69.1435 94.5248C69.5148 94.9007 69.7241 95.4122 69.7241 95.9451C69.7241 96.478 69.5148 96.9895 69.1435 97.3644C68.788 97.7509 68.2907 97.9705 67.7705 97.9705C67.2504 97.9705 66.753 97.751 66.3975 97.3644C65.7206 96.6762 64.8038 96.2888 63.8476 96.2888C62.8914 96.2888 61.9746 96.6762 61.2978 97.3644C60.9423 97.7509 60.4449 97.9705 59.9247 97.9705C59.4046 97.9705 58.9072 97.751 58.5517 97.3644C58.1805 96.9895 57.9712 96.478 57.9712 95.9451ZM48.1572 82.0086C47.0741 82.0086 46.1958 82.9039 46.1958 84.0081C46.1958 85.1124 47.0741 86.0077 48.1572 86.0077H52.0801C53.1633 86.0077 54.0416 85.1124 54.0416 84.0081C54.0416 82.9039 53.1633 82.0086 52.0801 82.0086H48.1572ZM73.6568 84.0081C73.6568 82.9039 74.5351 82.0086 75.6182 82.0086H79.5411C80.6243 82.0086 81.5026 82.9039 81.5026 84.0081C81.5026 85.1124 80.6243 86.0077 79.5411 86.0077H75.6182C74.5351 86.0077 73.6568 85.1124 73.6568 84.0081ZM78.7166 25.6614L77.1869 24.0617C76.8156 23.6859 76.6063 23.1753 76.6063 22.6415C76.6063 22.1086 76.8156 21.598 77.1869 21.2222C77.5424 20.8356 78.0398 20.616 78.5599 20.616C79.08 20.616 79.5774 20.8356 79.9329 21.2222L81.5021 22.8218L83.0712 21.2222C83.4267 20.8356 83.9241 20.616 84.4442 20.616C84.9644 20.616 85.4617 20.8356 85.8173 21.2222C86.1885 21.598 86.3978 22.1086 86.3978 22.6415C86.3978 23.1753 86.1885 23.6859 85.8173 24.0617L84.2875 25.6614L85.8173 27.2209C86.5957 28.0172 86.5957 29.3045 85.8173 30.1007C85.0467 30.8417 83.8418 30.8417 83.0712 30.1007L81.5021 28.5011L79.9329 30.1007C79.1623 30.8417 77.9575 30.8417 77.1869 30.1007C76.4084 29.3044 76.4084 28.0172 77.1869 27.2209L78.7166 25.6614Z" fill="black"/>
</mask>
<g mask="url(#mask0_220_5002)">
<rect width="120" height="120" fill="#6C757D"/>
</g>
</g>
<defs>
<clipPath id="clip0_220_5002">
<rect width="120" height="120" fill="white"/>
</clipPath>
</defs>
</svg>
