<svg width="39" height="40" viewBox="0 0 39 40" fill="none" xmlns="http://www.w3.org/2000/svg">
<path fill-rule="evenodd" clip-rule="evenodd" d="M0 2.51572C0 1.12633 1.13376 0 2.53248 0H6.94424C7.93968 0 8.90446 0.342699 9.67418 0.96976L11.0162 2.06304L11.0498 2.09345C11.0808 2.08307 11.1117 2.07293 11.1428 2.06304C13.5641 1.29265 16.5017 1.14614 19.5 1.14614C22.4983 1.14614 25.4359 1.29265 27.8572 2.06304C27.8883 2.07293 27.9192 2.08307 27.9502 2.09345L27.9838 2.06304L29.3258 0.96976C30.0955 0.342699 31.0603 0 32.0558 0H36.4675C37.8662 0 39 1.12633 39 2.51572V4.0709C39 5.27415 38.4898 6.42173 37.5944 7.23213L36.5117 8.21212C35.9832 8.69054 35.3488 9.03872 34.6597 9.22854L34.4036 9.2991C35.4069 11.677 35.9611 14.2188 35.9611 16.275C35.9611 24.5464 30.8092 28.1187 26.2698 31.2663C22.695 33.7451 19.5 35.9604 19.5 40C19.5 35.9604 16.305 33.7451 12.7302 31.2663C8.19081 28.1187 3.03892 24.5464 3.03892 16.275C3.03892 14.2188 3.59315 11.677 4.59636 9.2991L4.34026 9.22854C3.6512 9.03872 3.01681 8.69054 2.48827 8.21212L1.40559 7.23213C0.510219 6.42173 0 5.27415 0 4.0709V2.51572ZM22.7922 23.0372C22.7922 23.4324 22.6188 23.8113 22.3101 24.0908C22.0014 24.3702 21.5827 24.5272 21.1461 24.5272C20.7692 24.5272 20.4055 24.4101 20.1146 24.1983C20.6099 25.5153 21.8773 26.7632 23.8052 24.7564C25.5071 22.8917 23.7295 18.9588 21.9977 16.625C21.4205 15.8471 20.4728 15.4727 19.5 15.4727C18.5272 15.4727 17.5795 15.8471 17.0023 16.625C15.2705 18.9588 13.4929 22.8917 15.1948 24.7564C17.1227 26.7632 18.3901 25.5153 18.8854 24.1983C18.5945 24.4101 18.2308 24.5272 17.8539 24.5272C17.4173 24.5272 16.9986 24.3702 16.6899 24.0908C16.3812 23.8113 16.2078 23.4324 16.2078 23.0372H22.7922ZM13.1962 11.3951H8.61042L12.2245 14.2698C13.0198 14.9023 14.1822 14.7001 14.6743 13.8436C15.2957 12.7622 14.4704 11.3951 13.1962 11.3951ZM25.8038 11.3951H30.3896L26.7755 14.2698C25.9802 14.9023 24.8178 14.7001 24.3257 13.8436C23.7043 12.7622 24.5296 11.3951 25.8038 11.3951Z" fill="#FF6600"/>
</svg>
